<svg width="46" height="46" viewBox="0 0 46 46" fill="none" xmlns="http://www.w3.org/2000/svg">
<path d="M19.1667 28.7497L29.1142 22.9997L19.1667 17.2497V28.7497ZM41.3234 13.7422C41.5725 14.643 41.745 15.8505 41.86 17.3838C41.9942 18.9172 42.0517 20.2397 42.0517 21.3897L42.1667 22.9997C42.1667 27.1972 41.86 30.283 41.3234 32.2572C40.8442 33.9822 39.7325 35.0938 38.0075 35.573C37.1067 35.8222 35.4584 35.9947 32.9284 36.1097C30.4367 36.2438 28.1559 36.3013 26.0475 36.3013L23 36.4163C14.9692 36.4163 9.96671 36.1097 7.99254 35.573C6.26754 35.0938 5.15587 33.9822 4.67671 32.2572C4.42754 31.3563 4.25504 30.1488 4.14004 28.6155C4.00587 27.0822 3.94837 25.7597 3.94837 24.6097L3.83337 22.9997C3.83337 18.8022 4.14004 15.7163 4.67671 13.7422C5.15587 12.0172 6.26754 10.9055 7.99254 10.4263C8.89337 10.1772 10.5417 10.0047 13.0717 9.88967C15.5634 9.75551 17.8442 9.69801 19.9525 9.69801L23 9.58301C31.0309 9.58301 36.0334 9.88967 38.0075 10.4263C39.7325 10.9055 40.8442 12.0172 41.3234 13.7422Z" fill="#C8C8C8"/>
</svg>
