<svg width="46" height="46" viewBox="0 0 46 46" fill="none" xmlns="http://www.w3.org/2000/svg">
<path fill-rule="evenodd" clip-rule="evenodd" d="M5.75 21.0833C5.75 13.8556 5.75 10.2407 7.99633 7.99633C10.2407 5.75 13.8556 5.75 21.0833 5.75H24.9167C32.1444 5.75 35.7592 5.75 38.0037 7.99633C40.25 10.2407 40.25 13.8556 40.25 21.0833V24.9167C40.25 32.1444 40.25 35.7592 38.0037 38.0037C35.7592 40.25 32.1444 40.25 24.9167 40.25H21.0833C13.8556 40.25 10.2407 40.25 7.99633 38.0037C5.75 35.7592 5.75 32.1444 5.75 24.9167V21.0833ZM34.5 14.375C34.5 15.1375 34.1971 15.8688 33.6579 16.4079C33.1188 16.9471 32.3875 17.25 31.625 17.25C30.8625 17.25 30.1312 16.9471 29.5921 16.4079C29.0529 15.8688 28.75 15.1375 28.75 14.375C28.75 13.6125 29.0529 12.8812 29.5921 12.3421C30.1312 11.8029 30.8625 11.5 31.625 11.5C32.3875 11.5 33.1188 11.8029 33.6579 12.3421C34.1971 12.8812 34.5 13.6125 34.5 14.375ZM26.8333 24.9167C26.8333 25.9333 26.4295 26.9084 25.7106 27.6272C24.9917 28.3461 24.0167 28.75 23 28.75C21.9833 28.75 21.0083 28.3461 20.2894 27.6272C19.5705 26.9084 19.1667 25.9333 19.1667 24.9167C19.1667 23.9 19.5705 22.925 20.2894 22.2061C21.0083 21.4872 21.9833 21.0833 23 21.0833C24.0167 21.0833 24.9917 21.4872 25.7106 22.2061C26.4295 22.925 26.8333 23.9 26.8333 24.9167ZM30.6667 24.9167C30.6667 26.95 29.8589 28.9 28.4212 30.3378C26.9834 31.7756 25.0333 32.5833 23 32.5833C20.9667 32.5833 19.0166 31.7756 17.5788 30.3378C16.1411 28.9 15.3333 26.95 15.3333 24.9167C15.3333 22.8833 16.1411 20.9333 17.5788 19.4955C19.0166 18.0577 20.9667 17.25 23 17.25C25.0333 17.25 26.9834 18.0577 28.4212 19.4955C29.8589 20.9333 30.6667 22.8833 30.6667 24.9167Z" fill="#04C4D9"/>
</svg>
